<svg width="64" height="56" viewBox="0 0 64 56" fill="none" xmlns="http://www.w3.org/2000/svg">
<g clip-path="url(#clip0_123_8)">
<path d="M9.97643 47.597C9.25888 49.0042 8.0046 50.0641 6.50333 50.5683C4.99671 51.0738 2.94474 51.1404 1.621 50.1232C-0.181511 48.7391 1.67279 46.4582 2.50212 45.093C3.15063 44.0244 3.78024 42.9592 4.24587 41.7945C4.63794 40.816 4.90013 39.7968 5.0489 38.7607C5.74016 40.936 6.69402 43.0307 7.93679 44.9417C8.54831 45.8824 9.23011 46.7701 9.97643 47.597Z" fill="#D7E2E2"/>
<path d="M7.93734 44.9432C6.74676 43.1123 6.05017 41.3065 6.00701 41.3258C5.9614 41.346 7.13472 43.1658 7.198 45.5913C7.22348 46.5702 7.26499 48.1541 6.22072 49.2029C5.10863 50.3199 3.12077 50.4732 1.20935 49.7162C1.29894 49.8226 1.43045 49.978 1.62155 50.1247C2.94529 51.1419 4.99726 51.0757 6.50388 50.5698C8.00515 50.0655 9.25984 49.0056 9.97698 47.5985C9.23066 46.7712 8.54886 45.8835 7.93734 44.9432Z" fill="#C1D6D5"/>
<path d="M62.8815 32.9496C62.4771 33.6137 61.859 34.1562 61.3766 34.7644C60.3894 36.0092 59.5432 37.3527 58.7463 38.7249C57.1181 41.5286 55.6472 44.4456 53.4452 46.8601C51.2601 49.2548 48.5654 51.1461 45.5743 52.3954C42.6655 53.6107 39.5372 54.2543 36.4056 54.5304C33.3196 54.8021 30.1843 54.7737 27.1037 54.4491C24.0946 54.1326 21.099 53.4792 18.2937 52.3317C15.486 51.1835 12.9018 49.4858 10.8338 47.2579C8.73496 44.9959 7.19341 42.2482 6.16763 39.3476C5.75666 38.187 5.42994 37.0026 5.17267 35.8042C5.17267 35.7984 5.17185 35.7923 5.17185 35.7865C5.16856 35.7273 5.15623 35.6747 5.13568 35.6279C4.72677 33.6663 4.50115 31.6661 4.39717 29.6618C4.2447 26.7119 4.38525 23.7438 4.85294 20.8264C5.26637 18.243 5.90913 15.6757 6.63079 13.1626C7.34013 10.6955 8.27221 8.2211 9.9876 6.26488C12.9959 2.83452 17.7229 1.45612 22.1597 1.31434C24.6839 1.23297 27.2841 1.44174 29.6394 2.41163C31.2808 3.08767 32.7541 4.12578 33.9817 5.40349C37.2727 8.8281 38.7337 13.6611 39.4932 18.2381C39.7464 19.7657 39.9161 21.3056 40.0316 22.8488C40.0731 23.4077 40.9489 23.4122 40.9069 22.8488C40.8815 22.5056 40.8531 22.1616 40.8227 21.8156C43.8844 25.0881 45.8817 29.3721 46.6083 33.7756C46.8977 35.5259 46.9733 37.3305 46.7752 39.0993C46.7349 39.177 46.7271 39.2649 46.7456 39.35C46.6852 39.828 46.6042 40.3035 46.5023 40.7744C46.2557 41.9112 45.9611 43.3463 44.9057 44.0149C43.9917 44.5944 42.7477 44.5948 41.7889 44.1177C40.5613 43.507 39.7661 42.2745 39.365 40.9968C38.8521 39.3619 38.9252 37.619 38.9848 35.9283C39.0046 35.3648 38.1288 35.3653 38.1091 35.9283C38.0071 38.8043 38.0096 42.2527 40.4421 44.2673C41.4305 45.0867 42.6725 45.4718 43.9494 45.2807C45.2973 45.0789 46.2672 44.1925 46.7748 42.9538C47.2108 41.8906 47.4475 40.728 47.5934 39.583C50.2249 38.1705 51.6177 35.3135 51.9575 32.4309C52.0471 31.676 52.0233 30.9264 52.0521 30.169C52.0718 29.6635 52.1441 28.9237 52.7437 28.786C53.2952 28.6599 53.9195 29.0885 54.2495 29.4987C54.5606 29.8854 54.7669 30.3654 54.9293 30.8294C55.3139 31.9316 55.6012 33.2677 55.383 34.4348C55.3821 34.4373 55.3817 34.4406 55.3817 34.4435C55.0365 34.988 54.7143 35.5416 54.4094 36.0849C54.1275 36.5867 53.8603 37.0967 53.6039 37.6116C53.3532 38.1146 54.1081 38.5585 54.3601 38.0534C55.0842 36.6002 55.8954 35.1832 56.8567 33.8726C57.4912 33.0079 58.2158 32.1342 59.1031 31.5173C60.0335 30.8709 61.5307 30.4829 62.5281 31.1919C63.1462 31.6304 63.2695 32.3134 62.8815 32.9496Z" fill="#D7E2E2"/>
<path d="M63.1061 32.8205C63.079 32.8797 63.0478 32.9389 63.012 32.9972C62.6068 33.6613 61.9895 34.203 61.507 34.8121C60.5199 36.0569 59.6737 37.3995 58.8768 38.7718C57.2481 41.5754 55.7777 44.4933 53.5749 46.9069C51.3898 49.3025 48.6959 51.1933 45.704 52.4427C42.7956 53.6579 39.6677 54.3015 36.5357 54.5773C33.4497 54.8489 30.3144 54.8206 27.2334 54.4963C24.2251 54.1794 21.2291 53.5256 18.4234 52.3782C17.5324 52.014 14.7497 50.8091 13.9134 50.3344C6.49212 44.7136 7.38763 42.0094 7.349 41.9288C10.7679 48.7818 18.4057 52.4414 25.7222 50.8243C32.6487 49.293 37.882 43.3426 38.5671 36.1387C38.5671 36.137 38.5675 36.1362 38.5679 36.1362C38.5815 36.1333 38.7393 37.1197 38.7557 37.2195C39.3479 40.8821 39.6442 42.7134 40.4156 43.786C42.1125 46.1466 46.5091 46.3168 49.4492 45.2733C51.3043 44.6149 52.4172 43.5312 54.1293 41.8631C56.0041 40.0367 56.3715 39.0377 59.9059 35.0138C61.1043 33.6494 62.4765 32.1539 62.945 32.4309C63.0671 32.504 63.0987 32.6816 63.1061 32.8205Z" fill="#C1D6D5"/>
<path d="M63.4014 33.7317C62.8971 34.3934 62.3008 34.9802 61.7949 35.644C61.282 36.3171 60.8094 37.0223 60.3602 37.7403C59.4758 39.154 58.6847 40.6229 57.8529 42.0682C57.0186 43.5173 56.1379 44.9409 55.1022 46.2568C54.0403 47.6061 52.8181 48.8287 51.4771 49.9017C46.2306 54.101 39.5026 55.4934 32.916 55.5756C26.6878 55.6533 20.1308 54.7779 14.7097 51.5086C13.2051 50.6012 11.8304 49.5121 10.609 48.2702C10.3928 48.0511 10.1816 47.8272 9.97569 47.5982C9.22937 46.771 8.54757 45.8833 7.93605 44.943C6.69328 43.032 5.739 40.9372 5.04816 38.762C4.75555 37.8426 4.5102 36.9089 4.30965 35.9694C4.30842 35.9629 4.30718 35.9571 4.30554 35.9505C3.03441 29.9742 3.21154 23.6403 4.57596 17.6977C5.22447 14.8727 5.88695 11.9828 7.06397 9.32296C8.1929 6.77166 9.96377 4.63256 12.34 3.15184C14.6657 1.70276 17.3473 0.942461 20.0498 0.607931C21.9994 0.36587 23.9844 0.353542 25.9349 0.590671C28.1615 0.862323 30.3043 1.53672 32.187 2.77374C33.8617 3.87391 35.2569 5.33614 36.3748 6.99317C39.0292 10.9286 40.1602 15.7386 40.6862 20.4475C40.7376 20.9045 40.7836 21.3607 40.8243 21.8152C40.8251 21.8152 40.8243 21.816 40.8243 21.816C40.8547 22.1621 40.8827 22.5056 40.9086 22.8492C40.9505 23.4127 40.0747 23.4081 40.0332 22.8492C39.9173 21.306 39.748 19.7661 39.4948 18.2385C38.7354 13.6612 37.2744 8.82815 33.9833 5.40395C32.7558 4.12625 31.282 3.08814 29.641 2.41209C27.2857 1.4422 24.6855 1.23302 22.1614 1.3148C17.7249 1.457 12.9976 2.83498 9.98925 6.26535C8.27387 8.22156 7.34179 10.696 6.63245 13.1631C5.91038 15.6761 5.26803 18.2435 4.8546 20.8268C4.38691 23.7443 4.24636 26.7127 4.39883 29.6623C4.50281 31.6666 4.72843 33.6668 5.13734 35.6283C5.14926 35.6867 5.16159 35.7455 5.17433 35.8046C5.4316 37.0034 5.75832 38.1874 6.16929 39.348C7.19507 42.2486 8.73621 44.9964 10.8354 47.2584C12.9034 49.4862 15.4876 51.184 18.2954 52.3322C21.1006 53.4796 24.0962 54.1331 27.1053 54.4495C30.186 54.7742 33.3212 54.8026 36.4072 54.5309C39.5392 54.2547 42.6671 53.6111 45.576 52.3959C48.567 51.1466 51.2617 49.2553 53.4469 46.8606C55.6488 44.4461 57.1201 41.529 58.748 38.7254C59.5448 37.3532 60.391 36.0097 61.3782 34.7649C61.8606 34.1567 62.4787 33.6142 62.8831 32.95C63.2711 32.3143 63.1474 31.6308 62.5313 31.1923C61.5339 30.4834 60.0368 30.8714 59.1063 31.5178C58.2195 32.1347 57.4945 33.0084 56.86 33.8731C55.8987 35.1837 55.087 36.6007 54.3633 38.0539C54.1114 38.559 53.3564 38.1151 53.6071 37.6121C53.8636 37.0971 54.1307 36.5871 54.4126 36.0853C54.7176 35.542 55.0398 34.9885 55.385 34.4439C55.6743 33.989 55.9793 33.541 56.3064 33.1111C56.9738 32.2321 57.7288 31.4286 58.6086 30.8011C59.6484 30.0593 61.1065 29.7128 62.3415 30.1296C63.0574 30.372 63.6817 30.9174 63.9163 31.6493C64.1555 32.3969 63.8551 33.1366 63.4014 33.7317Z" fill="#A7BBBC"/>
<path d="M47.7073 38.4886C47.6921 38.697 47.6732 38.9054 47.6506 39.1141C47.6334 39.2695 47.6153 39.4252 47.5956 39.5818C47.4497 40.7268 47.2129 41.889 46.7769 42.9526C46.2694 44.1913 45.2995 45.0777 43.9515 45.2795C42.6746 45.471 41.4322 45.0855 40.4443 44.2661C38.0121 42.2515 38.0093 38.803 38.1112 35.9271C38.1309 35.364 39.0067 35.3636 38.987 35.9271C38.927 37.6178 38.8542 39.3607 39.3671 40.9956C39.7682 42.2733 40.563 43.5054 41.791 44.1165C42.7498 44.594 43.9938 44.5932 44.9078 44.0137C45.9632 43.3451 46.2578 41.9104 46.5044 40.7732C46.6063 40.3022 46.6873 39.8272 46.7477 39.3488C46.7584 39.2654 46.7683 39.1819 46.7773 39.0981C46.9754 37.3293 46.8998 35.5251 46.6105 33.7744C45.8839 29.3709 43.8861 25.0869 40.8248 21.8144C40.8248 21.8144 40.8256 21.8135 40.8248 21.8135C40.6091 21.5826 40.3884 21.3574 40.1619 21.1371C39.7871 20.773 40.2893 20.2165 40.6867 20.4458C40.7188 20.4643 40.7504 20.4878 40.7809 20.5173C42.8599 22.5418 44.5034 25.0064 45.6743 27.6563C46.7407 30.0683 47.439 32.6331 47.6757 35.2621C47.7714 36.3347 47.7867 37.4148 47.7073 38.4886Z" fill="#A7BBBC"/>
<path d="M10.8328 47.8314C10.7638 47.9805 10.6894 48.1264 10.6084 48.2695C9.69239 49.9059 8.07275 51.0879 6.25627 51.5548C4.52608 51.9998 2.30191 51.8926 0.90174 50.6605C0.0810328 49.938 -0.145823 48.8563 0.0855535 47.8153C0.32967 46.7185 1.04229 45.8164 1.61025 44.874C2.27315 43.7739 2.95823 42.6877 3.42962 41.4876C4.12539 39.7176 4.38553 37.8436 4.30498 35.9498C4.30252 35.8952 4.29964 35.8401 4.29717 35.7854C4.27087 35.2803 4.96911 35.2298 5.13679 35.6268C5.15733 35.6736 5.16966 35.7262 5.17295 35.7854C5.17295 35.7912 5.17377 35.7973 5.17377 35.8031C5.22555 36.7919 5.18692 37.7844 5.04761 38.7613C4.89883 39.7977 4.63664 40.8169 4.24457 41.795C3.77894 42.9597 3.14892 44.025 2.50082 45.0935C1.67149 46.4587 -0.182809 48.7396 1.6197 50.1238C2.94344 51.1409 4.99541 51.0747 6.50203 50.5688C8.0033 50.0646 9.25799 49.0047 9.97513 47.5975C10.0101 47.5293 10.0442 47.4594 10.0762 47.3892C10.313 46.8771 11.0675 47.3226 10.8328 47.8314Z" fill="#A7BBBC"/>
<path d="M56.2314 34.6665C56.1287 35.218 55.2924 34.9875 55.3857 34.4421C55.3857 34.4396 55.3865 34.4363 55.3869 34.4335C55.6051 33.2663 55.3178 31.9303 54.9332 30.828C54.7708 30.3636 54.5641 29.8836 54.2534 29.4973C53.9234 29.0872 53.2992 28.6581 52.7476 28.7847C52.148 28.922 52.0757 29.6617 52.056 30.1676C52.0272 30.925 52.0506 31.6746 51.9615 32.4296C51.6216 35.3121 50.2288 38.1692 47.5974 39.5817C47.5337 39.6166 47.4691 39.6499 47.4042 39.6824C47.0919 39.8381 46.8034 39.6068 46.7491 39.3491C46.7306 39.2644 46.7384 39.1761 46.7787 39.0984C46.8136 39.0306 46.8732 38.9702 46.962 38.9262C47.2226 38.7967 47.4716 38.65 47.7091 38.4889C48.8829 37.6953 49.7804 36.5417 50.348 35.2353C50.7088 34.4035 50.9398 33.5051 51.0635 32.6075C51.1761 31.7934 51.149 30.9854 51.1806 30.1672C51.2057 29.5187 51.3166 28.7995 51.8098 28.3293C52.3876 27.7782 53.2051 27.8132 53.8889 28.1308C55.0417 28.6655 55.5879 29.8918 55.922 31.0479C56.1118 31.7042 56.2586 32.4066 56.3075 33.1093C56.344 33.6341 56.3264 34.1598 56.2314 34.6665Z" fill="#A7BBBC"/>
<g opacity="0.5">
<path d="M17.3195 9.99906C17.4239 10.4252 17.0984 10.6767 16.2823 10.9505C15.4546 11.2279 14.7497 11.3417 14.6528 10.902C14.5566 10.4655 15.1529 9.89673 15.9736 9.63206C16.7828 9.37068 17.216 9.57617 17.3195 9.99906Z" fill="#626866"/>
<path d="M28.1311 9.15254C28.0214 9.58324 28.3374 9.80064 29.1261 9.9901C29.911 10.1787 30.5698 10.2198 30.6664 9.78913C30.7621 9.36255 30.2155 8.86733 29.4429 8.67828C28.6666 8.48883 28.24 8.72595 28.1311 9.15254Z" fill="#626866"/>
</g>
<path d="M15.6405 20.4996C14.574 20.0804 13.3773 20.0607 12.2471 20.1601C11.1317 20.258 10.0106 20.4943 9.04317 21.0807C8.98646 21.1152 9.0255 21.1933 9.08632 21.183C10.1779 20.9961 11.2583 20.7281 12.3655 20.6422C13.4512 20.5575 14.5321 20.6685 15.6166 20.6771C15.7243 20.6771 15.7305 20.5349 15.6405 20.4996Z" fill="black"/>
<path d="M15.4497 21.82C14.2633 21.8805 13.1762 22.1459 12.109 22.6777C11.5961 22.9334 11.1107 23.2391 10.6562 23.5889C10.2547 23.8979 9.74258 24.313 9.55806 24.8008C9.53998 24.8489 9.59875 24.8793 9.63655 24.8612C9.86711 24.7523 10.0496 24.5641 10.2493 24.4083C10.4585 24.2452 10.6685 24.0812 10.8806 23.9213C11.3162 23.593 11.7839 23.3045 12.2705 23.0583C13.2404 22.568 14.3697 22.2068 15.4497 22.0724C15.6063 22.0535 15.6162 21.8114 15.4497 21.82Z" fill="black"/>
<path d="M15.9878 22.7718C15.7453 22.8088 15.5267 22.9856 15.3224 23.1146C15.0882 23.2625 14.8568 23.4158 14.6365 23.5843C14.2371 23.8901 13.8524 24.2172 13.5129 24.5892C13.1862 24.9471 12.8891 25.3334 12.6277 25.7415C12.3178 26.2256 12.1415 26.6822 12.0121 27.2379C11.9956 27.309 12.0877 27.3464 12.1276 27.2868C12.6852 26.4545 13.2039 25.5743 13.9034 24.8489C14.2297 24.5102 14.5716 24.1913 14.9365 23.8942C15.1523 23.7183 15.3697 23.5449 15.5941 23.3801C15.7778 23.2449 15.9894 23.1335 16.1197 22.9432C16.1834 22.8499 16.0782 22.7583 15.9878 22.7718Z" fill="black"/>
<path d="M31.1446 19.549C32.2406 19.3793 33.3165 19.1068 34.429 19.0431C35.5119 18.981 36.5936 19.0846 37.6757 19.1105C37.7439 19.1121 37.7447 19.0234 37.6905 19.0008C36.6261 18.5524 35.4515 18.4825 34.3103 18.559C33.1982 18.6338 32.0516 18.8253 31.0751 19.3846C30.9806 19.4389 31.0492 19.5638 31.1446 19.549Z" fill="black"/>
<path d="M31.483 20.9103C32.575 20.8877 33.7269 21.0759 34.7638 21.417C35.3001 21.5933 35.8196 21.8198 36.3136 22.0939C36.7467 22.3343 37.1894 22.6849 37.662 22.8316C37.7076 22.846 37.7446 22.7926 37.7224 22.7531C37.4799 22.3204 36.9387 21.9854 36.517 21.7458C36.0111 21.4585 35.4768 21.221 34.9257 21.0357C33.7906 20.6547 32.6707 20.5458 31.4835 20.6572C31.324 20.6724 31.3174 20.914 31.483 20.9103Z" fill="black"/>
<path d="M30.9713 21.878C31.1377 22.0588 31.3962 22.1447 31.6104 22.2602C31.8405 22.3847 32.0661 22.5174 32.2909 22.6518C32.704 22.8988 33.1001 23.1713 33.4782 23.4692C34.255 24.0816 34.8846 24.8661 35.5442 25.5956C35.5848 25.6404 35.6732 25.5935 35.6498 25.5339C35.4558 25.0412 35.2396 24.6323 34.8977 24.2242C34.5582 23.8186 34.1797 23.4466 33.7688 23.1133C33.3767 22.7956 32.9505 22.5215 32.5087 22.2786C32.2786 22.1525 32.0402 22.0411 31.8006 21.9343C31.5697 21.8311 31.3108 21.679 31.0539 21.6782C30.9491 21.6782 30.9039 21.8048 30.9713 21.878Z" fill="black"/>
<path d="M17.468 17.072C18.0226 16.1522 17.7266 14.957 16.8068 14.4023C15.887 13.8477 14.6917 14.1437 14.1371 15.0636C13.5824 15.9834 13.8785 17.1786 14.7983 17.7333C15.7181 18.2879 16.9133 17.9919 17.468 17.072Z" fill="black"/>
<path d="M27.6771 15.2076C27.7547 16.279 28.686 17.0845 29.7574 17.0068C30.8288 16.9291 31.6343 15.9979 31.5566 14.9265C31.4789 13.8551 30.5477 13.0496 29.4763 13.1272C28.4049 13.2045 27.5994 14.1362 27.6771 15.2076Z" fill="black"/>
<path d="M24.8528 18.4242C24.8253 19.0484 24.0917 19.5823 23.2044 19.609C22.306 19.6361 21.6102 19.1339 21.6604 18.4948C21.7101 17.8644 22.4675 17.3499 23.3429 17.3371C24.208 17.3248 24.8799 17.8081 24.8528 18.4242Z" fill="black"/>
<path d="M22.9985 19.319C23.1004 20.1393 22.6397 20.9657 21.7894 21.1359C20.949 21.304 20.1948 20.7027 20.0008 19.9067C19.8882 19.4443 19.1748 19.6399 19.2874 20.1035C19.571 21.269 20.6991 22.0692 21.8971 21.8658C23.0786 21.6652 23.8829 20.4874 23.7378 19.319C23.6807 18.8529 22.9401 18.8472 22.9985 19.319Z" fill="black"/>
<path d="M23.0005 19.3192C23.0251 20.5171 23.935 21.5536 25.1531 21.6267C26.4173 21.7028 27.411 20.6692 27.5244 19.4609C27.5692 18.9871 26.8291 18.9904 26.7847 19.4609C26.7078 20.2763 25.9882 20.9536 25.1531 20.887C24.3419 20.8221 23.7566 20.1103 23.7402 19.3192C23.7303 18.8437 22.9906 18.842 23.0005 19.3192Z" fill="black"/>
</g>
<defs>
<clipPath id="clip0_123_8">
<rect width="64.0006" height="55.1608" fill="white" transform="translate(0 0.419434)"/>
</clipPath>
</defs>
</svg>
